<?xml version="1.0" encoding="utf-8"?><!-- Uploaded to: SVG Repo, www.svgrepo.com, Generator: SVG Repo Mixer Tools -->
<svg fill="#000000" width="800px" height="800px" viewBox="0 0 24 24" id="video-recorder" data-name="Flat Line" xmlns="http://www.w3.org/2000/svg" class="icon flat-line"><rect id="secondary" x="3" y="6" width="14" height="12" rx="1" style="fill: rgb(44, 169, 188); stroke-width: 2;"></rect><path id="primary" d="M17,9.38l2.55-1.27A1,1,0,0,1,21,9v6a1,1,0,0,1-1.45.89L17,14.62ZM17,17V7a1,1,0,0,0-1-1H4A1,1,0,0,0,3,7V17a1,1,0,0,0,1,1H16A1,1,0,0,0,17,17Z" style="fill: none; stroke: rgb(0, 0, 0); stroke-linecap: round; stroke-linejoin: round; stroke-width: 2;"></path></svg>